<?xml version="1.0" encoding="UTF-8"?>
<svg version="1.1" xmlns="http://www.w3.org/2000/svg" width="500" height="500">
<path d="M0 0 C165 0 330 0 500 0 C500 165 500 330 500 500 C335 500 170 500 0 500 C0 335 0 170 0 0 Z " fill="#FAA0A0" transform="translate(0,0)"/>
<path d="M0 0 C10.11740145 0.2383681 19.22313876 3.14117749 26.859375 9.890625 C40.30186889 24.23529969 46.7278436 44.64704596 53.90731812 62.58337402 C59.54318591 76.75251834 59.54318591 76.75251834 66.125 90.5 C66.4537915 91.13719971 66.78258301 91.77439941 67.12133789 92.4309082 C69.81601713 97.3400201 73.22133669 102.44070391 78.7421875 104.1796875 C79.50789063 104.20289063 80.27359375 104.22609375 81.0625 104.25 C81.84367187 104.28867187 82.62484375 104.32734375 83.4296875 104.3671875 C84.29980469 104.37105469 84.29980469 104.37105469 85.1875 104.375 C85.1875 105.695 85.1875 107.015 85.1875 108.375 C80.03923985 109.39965372 75.04159199 109.62583618 69.8125 109.6875 C69.00039063 109.71650391 68.18828125 109.74550781 67.3515625 109.77539062 C60.46390679 109.84713704 55.58525561 108.01479474 50.15625 103.796875 C37.66071224 89.57323095 31.15472539 68.28445963 24.19921875 50.98046875 C15.74278301 26.22634868 15.74278301 26.22634868 -1.8125 8.375 C-5.10422761 6.99496115 -5.10422761 6.99496115 -7.8125 6.375 C-6.79298285 1.27741427 -5.14454165 0.07532272 0 0 Z " fill="#FEFDFD" transform="translate(254.8125,219.625)"/>
<path d="M0 0 C14.52 0 29.04 0 44 0 C43 4 43 4 40.125 6.0625 C35.6298855 9.63185268 34.94779083 14.54622007 34 20 C33.69201892 24.88264413 33.79283431 29.72845202 33.91015625 34.6171875 C33.92382955 36.00519175 33.93438039 37.39322984 33.94200134 38.78128052 C33.97465635 44.61521041 34.02172198 50.44744938 34.16772461 56.27978516 C34.81388147 83.4715538 34.81388147 83.4715538 28.88645935 90.57901001 C26.41412885 93.00295246 23.81111875 94.97117696 21 97 C19.19513218 98.71026966 17.51586097 100.4979768 15.8125 102.3125 C14.56457693 103.56492009 13.30162805 104.80349155 12 106 C11.67 106 11.34 106 11 106 C10.98969254 105.05167801 10.97938507 104.10335602 10.96876526 103.126297 C10.87051794 94.13872623 10.76774132 85.15121682 10.66066074 76.16374683 C10.60576697 71.54448909 10.55240532 66.92522477 10.50268555 62.3059082 C10.45454128 57.83842325 10.40218909 53.37100471 10.34705925 48.90360069 C10.32685978 47.20900846 10.30811351 45.51439818 10.29092598 43.81977272 C11.30011404 23.90585352 11.30011404 23.90585352 4.5 6.125 C2.87482651 4.78259341 2.87482651 4.78259341 0 4 C0 2.68 0 1.36 0 0 Z " fill="#FEFEFE" transform="translate(176,135)"/>
<path d="M0 0 C0.66 0 1.32 0 2 0 C2.01401855 1.80633911 2.01401855 1.80633911 2.02832031 3.64916992 C2.0686121 8.17654544 2.13447375 12.70326902 2.20751953 17.23022461 C2.23550427 19.1783807 2.25682899 21.1266456 2.27099609 23.07495117 C2.18246721 39.48656493 2.18246721 39.48656493 7 55 C8.91240463 56.83360321 10.62683411 57.75948146 13 59 C13 60.32 13 61.64 13 63 C-1.52 63 -16.04 63 -31 63 C-31 61.68 -31 60.36 -31 59 C-30.071875 58.4225 -29.14375 57.845 -28.1875 57.25 C-24.19003405 54.42825933 -23.0484833 51.63175136 -22 47 C-21.82228908 43.94705811 -21.83237278 40.91987113 -21.83837891 37.86206055 C-21.76370989 28.16142792 -21.26761225 20.92979913 -14.33862305 13.7109375 C-11.57598986 11.1856586 -8.74328036 8.79274856 -5.79003906 6.49365234 C-3.50923994 4.59049781 -1.8161165 2.33814033 0 0 Z " fill="#FEFEFE" transform="translate(207,265)"/>
<path d="M0 0 C2 1 2 1 2.60522461 2.77832031 C3.00948738 5.05339219 3.2072532 7.23906771 3.31640625 9.546875 C3.35830078 10.39121094 3.40019531 11.23554688 3.44335938 12.10546875 C3.48267578 12.97816406 3.52199219 13.85085938 3.5625 14.75 C3.60568359 15.63816406 3.64886719 16.52632813 3.69335938 17.44140625 C3.79913615 19.62745963 3.90122546 21.81362089 4 24 C4.66 24 5.32 24 6 24 C5.67 26.31 5.34 28.62 5 31 C5.66 31.33 6.32 31.66 7 32 C6.01 32 5.02 32 4 32 C4 35.3 4 38.6 4 42 C0.95705115 38.95705115 0.97539606 35.17045283 0.375 31.0625 C0.24383789 30.18037842 0.11267578 29.29825684 -0.02246094 28.3894043 C-1.26837907 19.28044826 -1.52496857 10.17685441 -1 1 C-0.67 0.67 -0.34 0.34 0 0 Z " fill="#FCC6C6" transform="translate(167,251)"/>
<path d="M0 0 C0.28875 0.639375 0.5775 1.27875 0.875 1.9375 C1.82823451 4.15206079 1.82823451 4.15206079 4 5 C2.68 5 1.36 5 0 5 C-0.33 5.99 -0.66 6.98 -1 8 C-1.57995002 9.73985006 -2.16294475 11.47870298 -2.75390625 13.21484375 C-5.05273582 20.95534717 -5.23602049 28.1455827 -4.97680664 36.14428711 C-4.95481201 36.97323486 -4.93281738 37.80218262 -4.91015625 38.65625 C-4.88058838 39.39681641 -4.85102051 40.13738281 -4.82055664 40.90039062 C-5.02796463 43.3272052 -5.79407389 44.90376705 -7 47 C-7.99 46.67 -8.98 46.34 -10 46 C-9.1513076 34.84059776 -9.1513076 34.84059776 -8.4375 30.875 C-7.78540686 26.58981654 -7.92305715 22.32589792 -8 18 C-8.99 18.33 -9.98 18.66 -11 19 C-10.01 16.03 -9.02 13.06 -8 10 C-7.67 10 -7.34 10 -7 10 C-6.67 11.98 -6.34 13.96 -6 16 C-5.81824219 15.07316406 -5.63648438 14.14632812 -5.44921875 13.19140625 C-5.19785156 11.99386719 -4.94648438 10.79632813 -4.6875 9.5625 C-4.44386719 8.36753906 -4.20023437 7.17257813 -3.94921875 5.94140625 C-3.63597656 4.97074219 -3.32273437 4.00007812 -3 3 C-2.01 2.67 -1.02 2.34 0 2 C0 1.34 0 0.68 0 0 Z " fill="#FCD1D1" transform="translate(281,161)"/>
<path d="M0 0 C0.99 0.33 1.98 0.66 3 1 C4.14958375 3.95407189 4.11680723 6.8436144 4.09765625 9.984375 C4.09282227 11.38623047 4.09282227 11.38623047 4.08789062 12.81640625 C4.07951172 13.78449219 4.07113281 14.75257813 4.0625 15.75 C4.05798828 16.73355469 4.05347656 17.71710938 4.04882812 18.73046875 C4.03706483 21.15370791 4.02062684 23.57682273 4 26 C4.99 26 5.98 26 7 26 C6.67 26.66 6.34 27.32 6 28 C5.77377919 29.70363822 5.59111527 31.41328701 5.4375 33.125 C5.31181641 34.49011719 5.31181641 34.49011719 5.18359375 35.8828125 C5.12300781 36.58148438 5.06242188 37.28015625 5 38 C4.34 38 3.68 38 3 38 C2.34 37.34 1.68 36.68 1 36 C0.34 36 -0.32 36 -1 36 C-0.75552124 35.23864746 -0.75552124 35.23864746 -0.50610352 34.46191406 C0.17552566 31.14616462 0.11108791 27.99415392 0.09765625 24.609375 C0.0962413 23.90476135 0.09482635 23.20014771 0.09336853 22.47418213 C0.08778933 20.23274416 0.07524073 17.99140757 0.0625 15.75 C0.05748231 14.22656395 0.05291987 12.70312632 0.04882812 11.1796875 C0.03782674 7.45309228 0.02057646 3.72655604 0 0 Z " fill="#FBC5C5" transform="translate(223,192)"/>
<path d="M0 0 C0 5.28 0 10.56 0 16 C0.99 16.33 1.98 16.66 3 17 C3 17.66 3 18.32 3 19 C3.66 19.33 4.32 19.66 5 20 C4.01 20 3.02 20 2 20 C2 19.34 2 18.68 2 18 C1.34 18 0.68 18 0 18 C0 21.63 0 25.26 0 29 C-0.66 28.67 -1.32 28.34 -2 28 C-2 26.35 -2 24.7 -2 23 C-2.66 23.33 -3.32 23.66 -4 24 C-4.25477428 20.5638936 -4.47439003 17.12642199 -4.6875 13.6875 C-4.76033203 12.71103516 -4.83316406 11.73457031 -4.90820312 10.72851562 C-4.96298828 9.79072266 -5.01777344 8.85292969 -5.07421875 7.88671875 C-5.13182373 7.02264404 -5.18942871 6.15856934 -5.2487793 5.26831055 C-5 3 -5 3 -3.62036133 1.19458008 C-2 0 -2 0 0 0 Z " fill="#FCC7C7" transform="translate(201,229)"/>
<path d="M0 0 C0.33 0 0.66 0 1 0 C1.22304441 1.74818591 1.4278645 3.49870323 1.625 5.25 C1.74101562 6.22453125 1.85703125 7.1990625 1.9765625 8.203125 C2.00112537 11.13429393 1.5312717 12.54528964 0 15 C-0.99 14.67 -1.98 14.34 -3 14 C-2.67 10.04 -2.34 6.08 -2 2 C-1.34 2 -0.68 2 0 2 C0 1.34 0 0.68 0 0 Z " fill="#FAB1B1" transform="translate(274,193)"/>
<path d="M0 0 C0.66 0.33 1.32 0.66 2 1 C2 1.66 2 2.32 2 3 C2.66 3 3.32 3 4 3 C4.125 8.75 4.125 8.75 3 11 C2.34 11 1.68 11 1 11 C1 9.68 1 8.36 1 7 C-1.7839183 8.39195915 -1.97898997 10.15575779 -3 13 C-4.15019009 9.54942972 -3.80497206 8.69840756 -2.625 5.375 C-2.34914062 4.57835937 -2.07328125 3.78171875 -1.7890625 2.9609375 C-1 1 -1 1 0 0 Z " fill="#FCCDCD" transform="translate(217,227)"/>
<path d="M0 0 C0.66 0 1.32 0 2 0 C2 0.66 2 1.32 2 2 C1.34 2 0.68 2 0 2 C0.33 2.66 0.66 3.32 1 4 C2.32 3.34 3.64 2.68 5 2 C4.4140625 8.15234375 4.4140625 8.15234375 4 10 C3.01 10.495 3.01 10.495 2 11 C1.67 9.68 1.34 8.36 1 7 C0.34 7 -0.32 7 -1 7 C-1.33 8.65 -1.66 10.3 -2 12 C-3.15957207 8.52128379 -2.77456651 7.65780355 -1.5625 4.3125 C-1.13130859 3.10013672 -1.13130859 3.10013672 -0.69140625 1.86328125 C-0.46324219 1.24839844 -0.23507813 0.63351563 0 0 Z " fill="#FCD3D3" transform="translate(190,255)"/>
<path d="M0 0 C0.66 0.33 1.32 0.66 2 1 C1.21302675 4.41021743 0.12880057 7.68885166 -1 11 C-1.99 10.67 -2.98 10.34 -4 10 C-3.125 4.25 -3.125 4.25 -2 2 C-1.34 2 -0.68 2 0 2 C0 1.34 0 0.68 0 0 Z " fill="#FCCECE" transform="translate(255,188)"/>
<path d="M0 0 C0.66 0.33 1.32 0.66 2 1 C1.62703855 2.58887641 1.22548999 4.17105486 0.8125 5.75 C0.48185547 7.07257813 0.48185547 7.07257813 0.14453125 8.421875 C-1 11 -1 11 -6 15 C-5.01 10.38 -4.02 5.76 -3 1 C-2.34 1.33 -1.68 1.66 -1 2 C-0.67 1.34 -0.34 0.68 0 0 Z " fill="#FCD6D6" transform="translate(291,150)"/>
<path d="M0 0 C0.28875 0.639375 0.5775 1.27875 0.875 1.9375 C1.82823451 4.15206079 1.82823451 4.15206079 4 5 C2.68 5 1.36 5 0 5 C-0.33 5.99 -0.66 6.98 -1 8 C-1.65129797 9.34090759 -2.31513275 10.67592331 -3 12 C-3.33 12 -3.66 12 -4 12 C-3.67 9.03 -3.34 6.06 -3 3 C-2.01 2.67 -1.02 2.34 0 2 C0 1.34 0 0.68 0 0 Z " fill="#FCD6D6" transform="translate(281,161)"/>
<path d="M0 0 C0.66 0.66 1.32 1.32 2 2 C2.66 1.34 3.32 0.68 4 0 C3.93993922 1.45947705 3.8511311 2.91779272 3.75 4.375 C3.70359375 5.18710938 3.6571875 5.99921875 3.609375 6.8359375 C3.30773437 7.90714844 3.30773437 7.90714844 3 9 C1.02 9.99 1.02 9.99 -1 11 C-0.67 7.37 -0.34 3.74 0 0 Z " fill="#FCD6D6" transform="translate(262,178)"/>
<path d="M0 0 C0.33 0 0.66 0 1 0 C1.144375 1.0725 1.28875 2.145 1.4375 3.25 C1.83749442 5.91662949 2.27591924 8.41399729 3 11 C1.68 11 0.36 11 -1 11 C-0.67 7.37 -0.34 3.74 0 0 Z " fill="#FCCBCB" transform="translate(272,196)"/>
<path d="M0 0 C0.66 0 1.32 0 2 0 C4.02907167 3.3146667 4.12742133 5.4315979 3.625 9.25 C3.51414063 10.14203125 3.40328125 11.0340625 3.2890625 11.953125 C3.19367188 12.62859375 3.09828125 13.3040625 3 14 C2.34 13.67 1.68 13.34 1 13 C1.01160156 12.39671875 1.02320313 11.7934375 1.03515625 11.171875 C1.04417969 10.37265625 1.05320313 9.5734375 1.0625 8.75 C1.07410156 7.96109375 1.08570313 7.1721875 1.09765625 6.359375 C1.00385306 4.09308998 0.63241063 2.1711105 0 0 Z " fill="#FDDBDB" transform="translate(245,198)"/>
<path d="M0 0 C0.66 0 1.32 0 2 0 C2.66 0.99 3.32 1.98 4 3 C4.66 2.67 5.32 2.34 6 2 C5.67 2.99 5.34 3.98 5 5 C3.35 5.33 1.7 5.66 0 6 C-1.125 2.25 -1.125 2.25 0 0 Z " fill="#FCD5D5" transform="translate(181,265)"/>
</svg>
